<svg width="256" height="256" viewBox="0 0 256 256" fill="none" xmlns="http://www.w3.org/2000/svg">
<rect width="256" height="256" fill="#013233"/>
<g clip-path="url(#clip0_14_100)">
<path d="M100.309 103.93C99.4179 102.676 97.6878 102.362 96.4296 103.25L28.1162 150.946C28.6404 151.678 29.4269 152.148 30.423 152.148H98.0548C99.5752 152.148 100.833 150.894 100.833 149.379V105.497C100.833 104.922 100.676 104.4 100.309 103.93Z" fill="white"/>
<path d="M31.9957 103.25C30.7375 102.362 29.0073 102.676 28.1161 103.93C27.8015 104.4 27.5918 104.922 27.5918 105.497V149.431L60.097 122.893L31.9957 103.25Z" fill="white"/>
</g>
<path d="M120.382 142.432H138.503C145.785 142.432 151.684 136.533 151.684 129.252V124.31H148.387V129.252C148.387 131.985 147.283 134.448 145.491 136.239C143.7 138.031 141.237 139.135 138.503 139.135H120.382V142.432ZM124.157 133.027L116.405 140.779L124.157 148.531L126.489 146.2L121.069 140.779L126.489 135.359L124.157 133.027Z" fill="white"/>
<path d="M147.707 113.732L129.585 113.732C122.304 113.732 116.405 119.631 116.405 126.912L116.405 131.854L119.702 131.854L119.702 126.912C119.702 124.179 120.806 121.716 122.598 119.924C124.389 118.133 126.852 117.029 129.585 117.029L147.707 117.029L147.707 113.732ZM143.931 123.136L151.684 115.384L143.931 107.632L141.6 109.964L147.02 115.384L141.6 120.804L143.931 123.136Z" fill="white"/>
<g clip-path="url(#clip1_14_100)">
<path d="M216.189 126.725C216.189 123.431 215.004 121.151 213.99 119.376L213.68 118.871C212.448 116.89 211.372 115.15 211.372 113.122C211.372 110.675 213.229 108.391 215.847 108.391C215.925 108.391 215.999 108.399 216.072 108.403L216.193 108.414C211.284 103.905 204.858 101.407 198.193 101.415C193.775 101.412 189.426 102.509 185.538 104.607C181.649 106.704 178.344 109.736 175.92 113.429C176.541 113.449 177.135 113.464 177.637 113.464C180.422 113.464 184.737 113.126 184.737 113.126C186.174 113.041 186.345 115.15 184.908 115.321C184.908 115.321 183.467 115.492 181.859 115.573L191.57 144.45L197.396 126.947L193.24 115.569C191.807 115.484 190.447 115.317 190.447 115.317C189.01 115.231 189.181 113.033 190.614 113.118C190.614 113.118 195.019 113.456 197.637 113.456C200.426 113.456 204.746 113.118 204.746 113.118C206.183 113.033 206.35 115.146 204.913 115.317C204.913 115.317 203.468 115.484 201.863 115.569L211.497 144.224L214.154 135.341L214.363 134.669C215.412 131.328 216.185 128.862 216.185 126.721L216.189 126.725ZM171.534 128.073C171.534 133.079 172.943 137.984 175.6 142.227C178.257 146.469 182.055 149.878 186.559 152.063L173.838 117.22C172.314 120.635 171.529 124.334 171.534 128.073Z" fill="white"/>
<path d="M190.661 153.644L198.662 130.404L206.855 152.855C206.909 152.984 206.971 153.104 207.045 153.22C201.764 155.081 196.031 155.229 190.661 153.644ZM221.58 115.282C221.697 116.132 221.763 117.041 221.763 118.024C221.763 120.728 221.258 123.769 219.735 127.572L211.594 151.111C217.602 147.621 222.008 141.921 223.875 135.228C225.741 128.535 224.919 121.378 221.584 115.282H221.58Z" fill="white"/>
<path fill-rule="evenodd" clip-rule="evenodd" d="M167.117 128.073C167.117 110.939 181.058 96.9981 198.192 96.9981C215.322 96.9981 229.267 110.939 229.267 128.073C229.267 145.207 215.322 159.148 198.192 159.148C181.058 159.148 167.117 145.207 167.117 128.073ZM168.543 128.073C168.543 144.422 181.843 157.723 198.192 157.723C214.538 157.723 227.838 144.422 227.838 128.073C227.838 111.72 214.538 98.4237 198.192 98.4237C181.839 98.4237 168.543 111.72 168.543 128.073Z" fill="white"/>
</g>
<defs>
<clipPath id="clip0_14_100">
<rect width="74.4369" height="50.6171" fill="white" transform="translate(27.2446 102.364)"/>
</clipPath>
<clipPath id="clip1_14_100">
<rect width="62.15" height="62.15" fill="white" transform="translate(167.121 96.9982)"/>
</clipPath>
</defs>
</svg>
